# xmcd CD database file generated by Grip 3.2.0
# 
# Track frame offsets:
#       150
#       11487
#       25783
#       38986
#       52751
#       64616
#       77648
#       92128
#       104932
#       117373
#       132442
#       142246
#       155302
#       170687
#       182103
#       195979
#       210765
#       226276
# 
# Disc length: 3182 seconds
# 
# Revision: 2
# Processed by: cddbd v1.5.1PL2 Copyright (c) Steve Scherf et al.
# Submitted via: Grip 3.2.0
# 
DISCID=ef0c6c12
DTITLE=Various Artist - The greatest Era in Jazz from Swing to BebopCD2
DYEAR=2004
DGENRE=Jazz
TTITLE0=Benny Goodman - Goody Goody
TTITLE1=Dexter Gordon - Dexter's Cuttin' Out
TTITLE2=Perry Como - Did You Ever Get That Feeling In The Moonlight?
TTITLE3=Bix Beiderbecke - For No Reason At All in 'C'
TTITLE4=Teddy Wilson - Hallelujah
TTITLE5=Gerry Mulligan - A Ballad
TTITLE6=Duke Ellington - Great Times
TTITLE7=Buck Clayton and Eddie Durham and Freddy Green and Walter Page and JoJone - Go
TTITLE7=od Morning Blues
TTITLE8=Peggy Lee - Caramba! It's The Samba
TTITLE9=Anita O'Day - 'Murder' He Says
TTITLE10=Artie Shaw - Deuces Wild
TTITLE11=Dina Washington - Ain't Nothing' Good
TTITLE12=Sarah Vaughan - Come Rain Or Come Shine
TTITLE13=Wild Bill Davison - Avalon
TTITLE14=Bob Crosby - College Swing
TTITLE15=Doris Day - All Through The Day
TTITLE16=Buddy Rich - Baby, Baby All The Time
TTITLE17=Cab Calloway - Abi Gezunt (A Bee Gezindt)
EXTD=
EXTT0=
EXTT1=
EXTT2=
EXTT3=
EXTT4=
EXTT5=
EXTT6=
EXTT7=
EXTT8=
EXTT9=
EXTT10=
EXTT11=
EXTT12=
EXTT13=
EXTT14=
EXTT15=
EXTT16=
EXTT17=
PLAYORDER=
